<?xml version="1.0" encoding="UTF-8" standalone="no"?>
<!DOCTYPE svg PUBLIC "-//W3C//DTD SVG 1.1//EN" "http://www.w3.org/Graphics/SVG/1.1/DTD/svg11.dtd">
<svg version="1.1" xmlns="http://www.w3.org/2000/svg" xmlns:xlink="http://www.w3.org/1999/xlink" preserveAspectRatio="xMidYMid meet" viewBox="0 0 640 640" width="640" height="640"><defs><path d="M92.06 140.29L137.65 140.29L137.65 320L92.06 320L92.06 140.29Z" id="aeq6vGNvm"></path><path d="M148.41 187.35L194 187.35L194 320L148.41 320L148.41 187.35Z" id="a6bXZy2jeK"></path><path d="M219.34 168.4L264.65 173.42L247.77 325.72L202.46 320.7L219.34 168.4Z" id="f5PRXmU3m"></path><path d="M292.87 211.22L336.06 225.81L296.9 341.72L253.71 327.13L292.87 211.22Z" id="g1Bjo0wGp"></path><path d="M380.06 229.29L417.67 255.06L339.13 369.65L301.53 343.88L380.06 229.29Z" id="fn4zscCT"></path><path d="" id="d8KNerlbFK"></path><path d="M182.85 143.86L173.3 157.19L88.81 96.65L98.36 83.32L182.85 143.86Z" id="a1dNng6Cio"></path><path d="M246.68 118.15L251.39 133.85L173.53 157.22L168.81 141.52L246.68 118.15Z" id="b3eW6S2WTI"></path><path d="M327.57 184.2L317.21 196.91L236.62 131.26L246.98 118.55L327.57 184.2Z" id="balfNT4bd"></path><path d="M439.07 219.28L433.97 234.86L316.65 196.42L321.75 180.84L439.07 219.28Z" id="a87Og97GMw"></path></defs><g><g><g><use xlink:href="#aeq6vGNvm" opacity="1" fill="#2762da" fill-opacity="1"></use></g><g><use xlink:href="#a6bXZy2jeK" opacity="1" fill="#2762da" fill-opacity="1"></use></g><g><use xlink:href="#f5PRXmU3m" opacity="1" fill="#2762da" fill-opacity="1"></use></g><g><use xlink:href="#g1Bjo0wGp" opacity="1" fill="#2762da" fill-opacity="1"></use></g><g><use xlink:href="#fn4zscCT" opacity="1" fill="#2762da" fill-opacity="1"></use></g><g><g><use xlink:href="#d8KNerlbFK" opacity="1" fill-opacity="0" stroke="#000000" stroke-width="1" stroke-opacity="1"></use></g></g><g><use xlink:href="#a1dNng6Cio" opacity="1" fill="#2762da" fill-opacity="1"></use></g><g><use xlink:href="#b3eW6S2WTI" opacity="1" fill="#2762da" fill-opacity="1"></use></g><g><use xlink:href="#balfNT4bd" opacity="1" fill="#2762da" fill-opacity="1"></use></g><g><use xlink:href="#a87Og97GMw" opacity="1" fill="#2762da" fill-opacity="1"></use></g></g></g></svg>